<?xml version="1.0" standalone="no"?>
<!DOCTYPE svg PUBLIC "-//W3C//DTD SVG 20010904//EN"
 "http://www.w3.org/TR/2001/REC-SVG-20010904/DTD/svg10.dtd">
<svg version="1.0" xmlns="http://www.w3.org/2000/svg"
 width="208.000000pt" height="208.000000pt" viewBox="0 0 208.000000 208.000000"
 preserveAspectRatio="xMidYMid meet">
<metadata>
Created by potrace 1.11, written by Peter Selinger 2001-2013
</metadata>
<g transform="translate(0.000000,208.000000) scale(0.100000,-0.100000)"
fill="#000000" stroke="none">
<path d="M894 1981 c-2 -112 -65 -238 -230 -461 -131 -176 -208 -289 -245
-360 -151 -285 -131 -551 63 -820 l40 -55 -8 50 c-12 76 -7 177 11 247 16 66
71 181 106 227 106 138 260 231 380 231 l50 0 -41 -78 c-23 -43 -75 -125 -117
-182 -119 -166 -161 -277 -158 -413 6 -197 128 -304 335 -292 104 6 134 12
218 46 206 82 345 234 423 464 21 62 24 87 23 220 0 121 -5 165 -22 229 -91
328 -333 648 -697 920 -60 46 -114 85 -120 88 -6 4 -10 -19 -11 -61z m576
-1194 c58 -135 11 -315 -104 -393 -44 -30 -133 -43 -142 -21 -19 50 -8 85 57
184 49 76 117 226 126 281 5 31 7 32 23 17 10 -9 28 -40 40 -68z"/>
</g>
</svg>
